# xmcd CD database file
#
# Track frame offsets:
#	187
#	14377
#	30862
#	45442
#	62207
#	74427
#	87767
#	105340
#	123045
#	140267
#	153660
#	171495
#	185247
#	203440
#	218740
#	234445
#	252110
#
# Disc length: 3539 seconds
#
# Revision: 0
# Processed by: cddbd v1.5.1PL2 Copyright (c) Steve Scherf et al.
# Submitted via: CDex 1.51
#
DISCID=dd0dd111
DTITLE=和田弘とマヒナスターズ - 全曲集
DYEAR=1900
DGENRE=Blues
TTITLE0=1. 好きだった
TTITLE1=2. 誰よりも君を愛す
TTITLE2=3. お百度こいさん
TTITLE3=4. 銀座ブルース
TTITLE4=5. 惚れたって駄目よ
TTITLE5=6.涙と雨にぬれて
TTITLE6=7.泣きぼくろ
TTITLE7=8. 寒い朝
TTITLE8=9.男の夜曲
TTITLE9=10.ここがいいのよ
TTITLE10=11. 愛してはいけない
TTITLE11=12. 愛して愛して愛しちゃったのよ
TTITLE12=13. 泣かないで
TTITLE13=14. お座敷小唄
TTITLE14=15. 夜霧の空の終着港
TTITLE15=16. グッド・ナイト
TTITLE16=17. 愛して愛して愛しちゃったのよ〈カラオケ〉
EXTD=
EXTT0=
EXTT1=
EXTT2=
EXTT3=
EXTT4=
EXTT5=
EXTT6=
EXTT7=
EXTT8=
EXTT9=
EXTT10=
EXTT11=
EXTT12=
EXTT13=
EXTT14=
EXTT15=
EXTT16=
PLAYORDER=
